<mxfile host="app.diagrams.net" agent="Mozilla/5.0 (Windows NT 10.0; Win64; x64; rv:144.0) Gecko/20100101 Firefox/144.0" version="28.2.8">
  <diagram name="Seite-1" id="zS-QnQvDe2Hph_ruHdWV">
    <mxGraphModel dx="2377" dy="1255" grid="1" gridSize="10" guides="1" tooltips="1" connect="1" arrows="1" fold="1" page="1" pageScale="1" pageWidth="827" pageHeight="1169" math="0" shadow="0">
      <root>
        <mxCell id="0" />
        <mxCell id="1" parent="0" />
        <mxCell id="2OY20YXBduM8Riqg4RIn-50" style="edgeStyle=orthogonalEdgeStyle;rounded=0;orthogonalLoop=1;jettySize=auto;html=1;exitX=0.5;exitY=1;exitDx=0;exitDy=0;entryX=0.5;entryY=0;entryDx=0;entryDy=0;" edge="1" parent="1" source="2OY20YXBduM8Riqg4RIn-6" target="2OY20YXBduM8Riqg4RIn-26">
          <mxGeometry relative="1" as="geometry" />
        </mxCell>
        <mxCell id="2OY20YXBduM8Riqg4RIn-6" value="SOEP Structural&lt;br&gt;Dataset" style="shape=parallelogram;perimeter=parallelogramPerimeter;whiteSpace=wrap;html=1;fixedSize=1;rounded=1;strokeWidth=2;fillColor=#dae8fc;strokeColor=#6c8ebf;" vertex="1" parent="1">
          <mxGeometry x="240" y="360" width="180" height="40" as="geometry" />
        </mxCell>
        <mxCell id="2OY20YXBduM8Riqg4RIn-44" style="edgeStyle=orthogonalEdgeStyle;rounded=0;orthogonalLoop=1;jettySize=auto;html=1;exitX=0.5;exitY=1;exitDx=0;exitDy=0;entryX=0.5;entryY=0;entryDx=0;entryDy=0;" edge="1" parent="1" source="2OY20YXBduM8Riqg4RIn-8" target="2OY20YXBduM8Riqg4RIn-34">
          <mxGeometry relative="1" as="geometry" />
        </mxCell>
        <mxCell id="2OY20YXBduM8Riqg4RIn-46" style="edgeStyle=orthogonalEdgeStyle;rounded=0;orthogonalLoop=1;jettySize=auto;html=1;entryX=0.5;entryY=0;entryDx=0;entryDy=0;" edge="1" parent="1" source="2OY20YXBduM8Riqg4RIn-8" target="2OY20YXBduM8Riqg4RIn-28">
          <mxGeometry relative="1" as="geometry">
            <Array as="points">
              <mxPoint x="530" y="340" />
            </Array>
          </mxGeometry>
        </mxCell>
        <mxCell id="2OY20YXBduM8Riqg4RIn-8" value="SOEPcore v39" style="shape=parallelogram;perimeter=parallelogramPerimeter;whiteSpace=wrap;html=1;fixedSize=1;rounded=1;strokeWidth=2;fillColor=#dae8fc;strokeColor=#6c8ebf;" vertex="1" parent="1">
          <mxGeometry x="1040" y="320" width="180" height="40" as="geometry" />
        </mxCell>
        <mxCell id="2OY20YXBduM8Riqg4RIn-49" style="edgeStyle=orthogonalEdgeStyle;rounded=0;orthogonalLoop=1;jettySize=auto;html=1;exitX=0.5;exitY=0;exitDx=0;exitDy=0;entryX=0.5;entryY=1;entryDx=0;entryDy=0;" edge="1" parent="1" source="2OY20YXBduM8Riqg4RIn-10" target="2OY20YXBduM8Riqg4RIn-32">
          <mxGeometry relative="1" as="geometry" />
        </mxCell>
        <mxCell id="2OY20YXBduM8Riqg4RIn-10" value="SOEP Real Address&lt;br&gt;Coordinates" style="shape=parallelogram;perimeter=parallelogramPerimeter;whiteSpace=wrap;html=1;fixedSize=1;rounded=1;strokeWidth=2;fillColor=#dae8fc;strokeColor=#6c8ebf;" vertex="1" parent="1">
          <mxGeometry x="840" y="520" width="180" height="40" as="geometry" />
        </mxCell>
        <mxCell id="2OY20YXBduM8Riqg4RIn-56" style="edgeStyle=orthogonalEdgeStyle;rounded=0;orthogonalLoop=1;jettySize=auto;html=1;exitX=1;exitY=0.5;exitDx=0;exitDy=0;endArrow=none;endFill=0;" edge="1" parent="1" source="2OY20YXBduM8Riqg4RIn-12">
          <mxGeometry relative="1" as="geometry">
            <mxPoint x="730" y="540" as="targetPoint" />
          </mxGeometry>
        </mxCell>
        <mxCell id="2OY20YXBduM8Riqg4RIn-12" value="Hesse complete&amp;nbsp;&lt;br&gt;(Polygon)" style="shape=parallelogram;perimeter=parallelogramPerimeter;whiteSpace=wrap;html=1;fixedSize=1;rounded=1;strokeWidth=2;fillColor=#dae8fc;strokeColor=#6c8ebf;" vertex="1" parent="1">
          <mxGeometry x="440" y="520" width="180" height="40" as="geometry" />
        </mxCell>
        <mxCell id="2OY20YXBduM8Riqg4RIn-55" style="edgeStyle=orthogonalEdgeStyle;rounded=0;orthogonalLoop=1;jettySize=auto;html=1;exitX=1;exitY=0.5;exitDx=0;exitDy=0;endArrow=none;endFill=0;" edge="1" parent="1" source="2OY20YXBduM8Riqg4RIn-14">
          <mxGeometry relative="1" as="geometry">
            <mxPoint x="730" y="580" as="targetPoint" />
          </mxGeometry>
        </mxCell>
        <mxCell id="2OY20YXBduM8Riqg4RIn-14" value="Municipalities Hesse&lt;br&gt;(Polygons)" style="shape=parallelogram;perimeter=parallelogramPerimeter;whiteSpace=wrap;html=1;fixedSize=1;rounded=1;strokeWidth=2;fillColor=#dae8fc;strokeColor=#6c8ebf;" vertex="1" parent="1">
          <mxGeometry x="240" y="560" width="180" height="40" as="geometry" />
        </mxCell>
        <mxCell id="2OY20YXBduM8Riqg4RIn-54" style="edgeStyle=orthogonalEdgeStyle;rounded=0;orthogonalLoop=1;jettySize=auto;html=1;exitX=1;exitY=0.5;exitDx=0;exitDy=0;endArrow=none;endFill=0;" edge="1" parent="1" source="2OY20YXBduM8Riqg4RIn-16">
          <mxGeometry relative="1" as="geometry">
            <mxPoint x="730" y="620" as="targetPoint" />
          </mxGeometry>
        </mxCell>
        <mxCell id="2OY20YXBduM8Riqg4RIn-16" value="Counties Hesse&lt;br&gt;(Polygons)" style="shape=parallelogram;perimeter=parallelogramPerimeter;whiteSpace=wrap;html=1;fixedSize=1;rounded=1;strokeWidth=2;fillColor=#dae8fc;strokeColor=#6c8ebf;" vertex="1" parent="1">
          <mxGeometry x="440" y="600" width="180" height="40" as="geometry" />
        </mxCell>
        <mxCell id="2OY20YXBduM8Riqg4RIn-53" style="edgeStyle=orthogonalEdgeStyle;rounded=0;orthogonalLoop=1;jettySize=auto;html=1;exitX=1;exitY=0.5;exitDx=0;exitDy=0;endArrow=none;endFill=0;" edge="1" parent="1" source="2OY20YXBduM8Riqg4RIn-18">
          <mxGeometry relative="1" as="geometry">
            <mxPoint x="730" y="660" as="targetPoint" />
          </mxGeometry>
        </mxCell>
        <mxCell id="2OY20YXBduM8Riqg4RIn-18" value="Regierungsbezirke&lt;br&gt;Hesse (Polygons)" style="shape=parallelogram;perimeter=parallelogramPerimeter;whiteSpace=wrap;html=1;fixedSize=1;rounded=1;strokeWidth=2;fillColor=#dae8fc;strokeColor=#6c8ebf;" vertex="1" parent="1">
          <mxGeometry x="240" y="640" width="180" height="40" as="geometry" />
        </mxCell>
        <mxCell id="2OY20YXBduM8Riqg4RIn-52" style="edgeStyle=orthogonalEdgeStyle;rounded=0;orthogonalLoop=1;jettySize=auto;html=1;exitX=1;exitY=0.5;exitDx=0;exitDy=0;endArrow=none;endFill=0;" edge="1" parent="1" source="2OY20YXBduM8Riqg4RIn-20">
          <mxGeometry relative="1" as="geometry">
            <mxPoint x="729.9999999999995" y="699.7142857142858" as="targetPoint" />
          </mxGeometry>
        </mxCell>
        <mxCell id="2OY20YXBduM8Riqg4RIn-20" value="Municipality Type&lt;br&gt;Hesse (Polygons)" style="shape=parallelogram;perimeter=parallelogramPerimeter;whiteSpace=wrap;html=1;fixedSize=1;rounded=1;strokeWidth=2;fillColor=#dae8fc;strokeColor=#6c8ebf;" vertex="1" parent="1">
          <mxGeometry x="440" y="680" width="180" height="40" as="geometry" />
        </mxCell>
        <mxCell id="2OY20YXBduM8Riqg4RIn-51" style="edgeStyle=orthogonalEdgeStyle;rounded=0;orthogonalLoop=1;jettySize=auto;html=1;exitX=1;exitY=0.5;exitDx=0;exitDy=0;entryX=0.5;entryY=1;entryDx=0;entryDy=0;" edge="1" parent="1" source="2OY20YXBduM8Riqg4RIn-22" target="2OY20YXBduM8Riqg4RIn-30">
          <mxGeometry relative="1" as="geometry" />
        </mxCell>
        <mxCell id="2OY20YXBduM8Riqg4RIn-22" value="Growing / Shrinking&lt;br&gt;Areas Hesse (Polygons)" style="shape=parallelogram;perimeter=parallelogramPerimeter;whiteSpace=wrap;html=1;fixedSize=1;rounded=1;strokeWidth=2;fillColor=#dae8fc;strokeColor=#6c8ebf;" vertex="1" parent="1">
          <mxGeometry x="240" y="720" width="180" height="40" as="geometry" />
        </mxCell>
        <mxCell id="2OY20YXBduM8Riqg4RIn-48" style="edgeStyle=orthogonalEdgeStyle;rounded=0;orthogonalLoop=1;jettySize=auto;html=1;exitX=0.5;exitY=1;exitDx=0;exitDy=0;entryX=0.5;entryY=0;entryDx=0;entryDy=0;" edge="1" parent="1" source="2OY20YXBduM8Riqg4RIn-24" target="2OY20YXBduM8Riqg4RIn-32">
          <mxGeometry relative="1" as="geometry" />
        </mxCell>
        <mxCell id="2OY20YXBduM8Riqg4RIn-24" value="Urban Structure Types&lt;br&gt;Hesse (100 m grid)" style="shape=parallelogram;perimeter=parallelogramPerimeter;whiteSpace=wrap;html=1;fixedSize=1;rounded=1;strokeWidth=2;fillColor=#dae8fc;strokeColor=#6c8ebf;" vertex="1" parent="1">
          <mxGeometry x="840" y="360" width="180" height="40" as="geometry" />
        </mxCell>
        <mxCell id="2OY20YXBduM8Riqg4RIn-39" style="edgeStyle=orthogonalEdgeStyle;rounded=0;orthogonalLoop=1;jettySize=auto;html=1;exitX=1;exitY=0.5;exitDx=0;exitDy=0;entryX=0;entryY=0.5;entryDx=0;entryDy=0;" edge="1" parent="1" source="2OY20YXBduM8Riqg4RIn-26" target="2OY20YXBduM8Riqg4RIn-28">
          <mxGeometry relative="1" as="geometry" />
        </mxCell>
        <mxCell id="2OY20YXBduM8Riqg4RIn-26" value="Create subset for year 2021&lt;br&gt;and Hesse" style="rounded=1;whiteSpace=wrap;html=1;perimeterSpacing=1;strokeWidth=2;fillColor=#fff2cc;strokeColor=#d6b656;" vertex="1" parent="1">
          <mxGeometry x="240" y="440" width="180" height="40" as="geometry" />
        </mxCell>
        <mxCell id="2OY20YXBduM8Riqg4RIn-40" style="edgeStyle=orthogonalEdgeStyle;rounded=0;orthogonalLoop=1;jettySize=auto;html=1;exitX=1;exitY=0.5;exitDx=0;exitDy=0;entryX=0;entryY=0.5;entryDx=0;entryDy=0;" edge="1" parent="1" source="2OY20YXBduM8Riqg4RIn-28" target="2OY20YXBduM8Riqg4RIn-30">
          <mxGeometry relative="1" as="geometry" />
        </mxCell>
        <mxCell id="2OY20YXBduM8Riqg4RIn-28" value="Join municipality code (AGS)&lt;br&gt;to SOEP households" style="rounded=1;whiteSpace=wrap;html=1;strokeWidth=2;fillColor=#fff2cc;strokeColor=#d6b656;" vertex="1" parent="1">
          <mxGeometry x="440" y="440" width="180" height="40" as="geometry" />
        </mxCell>
        <mxCell id="2OY20YXBduM8Riqg4RIn-41" style="edgeStyle=orthogonalEdgeStyle;rounded=0;orthogonalLoop=1;jettySize=auto;html=1;exitX=1;exitY=0.5;exitDx=0;exitDy=0;entryX=0;entryY=0.5;entryDx=0;entryDy=0;" edge="1" parent="1" source="2OY20YXBduM8Riqg4RIn-30" target="2OY20YXBduM8Riqg4RIn-32">
          <mxGeometry relative="1" as="geometry" />
        </mxCell>
        <mxCell id="2OY20YXBduM8Riqg4RIn-30" value="Join further spatial identifiers&lt;br&gt;to SOEP households" style="rounded=1;whiteSpace=wrap;html=1;strokeWidth=2;fillColor=#fff2cc;strokeColor=#d6b656;" vertex="1" parent="1">
          <mxGeometry x="640" y="440" width="180" height="40" as="geometry" />
        </mxCell>
        <mxCell id="2OY20YXBduM8Riqg4RIn-42" style="edgeStyle=orthogonalEdgeStyle;rounded=0;orthogonalLoop=1;jettySize=auto;html=1;exitX=1;exitY=0.5;exitDx=0;exitDy=0;entryX=0;entryY=0.5;entryDx=0;entryDy=0;" edge="1" parent="1" source="2OY20YXBduM8Riqg4RIn-32" target="2OY20YXBduM8Riqg4RIn-34">
          <mxGeometry relative="1" as="geometry" />
        </mxCell>
        <mxCell id="2OY20YXBduM8Riqg4RIn-32" value="Spatial join with&amp;nbsp;&lt;br&gt;Urban Structure Types" style="rounded=1;whiteSpace=wrap;html=1;strokeWidth=2;fillColor=#fff2cc;strokeColor=#d6b656;" vertex="1" parent="1">
          <mxGeometry x="840" y="440" width="180" height="40" as="geometry" />
        </mxCell>
        <mxCell id="2OY20YXBduM8Riqg4RIn-57" style="edgeStyle=orthogonalEdgeStyle;rounded=0;orthogonalLoop=1;jettySize=auto;html=1;exitX=1;exitY=0.5;exitDx=0;exitDy=0;entryX=0;entryY=0.5;entryDx=0;entryDy=0;" edge="1" parent="1" source="2OY20YXBduM8Riqg4RIn-34" target="2OY20YXBduM8Riqg4RIn-36">
          <mxGeometry relative="1" as="geometry" />
        </mxCell>
        <mxCell id="2OY20YXBduM8Riqg4RIn-34" value="Join all extracted survey&amp;nbsp;&lt;br&gt;variables" style="rounded=1;whiteSpace=wrap;html=1;strokeWidth=2;fillColor=#fff2cc;strokeColor=#d6b656;" vertex="1" parent="1">
          <mxGeometry x="1040" y="440" width="180" height="40" as="geometry" />
        </mxCell>
        <mxCell id="2OY20YXBduM8Riqg4RIn-47" style="edgeStyle=orthogonalEdgeStyle;rounded=0;orthogonalLoop=1;jettySize=auto;html=1;exitX=0.5;exitY=1;exitDx=0;exitDy=0;entryX=0.5;entryY=0;entryDx=0;entryDy=0;" edge="1" parent="1" source="2OY20YXBduM8Riqg4RIn-36" target="2OY20YXBduM8Riqg4RIn-37">
          <mxGeometry relative="1" as="geometry" />
        </mxCell>
        <mxCell id="2OY20YXBduM8Riqg4RIn-36" value="Household-based data&lt;br&gt;with all needed fields" style="shape=parallelogram;perimeter=parallelogramPerimeter;whiteSpace=wrap;html=1;fixedSize=1;rounded=1;strokeWidth=2;fillColor=#dae8fc;strokeColor=#6c8ebf;" vertex="1" parent="1">
          <mxGeometry x="1240" y="440" width="180" height="40" as="geometry" />
        </mxCell>
        <mxCell id="2OY20YXBduM8Riqg4RIn-37" value="Analysis on different&amp;nbsp;&lt;br&gt;spatial units" style="rounded=1;whiteSpace=wrap;html=1;strokeWidth=2;fillColor=#d5e8d4;strokeColor=#82b366;" vertex="1" parent="1">
          <mxGeometry x="1240" y="520" width="180" height="40" as="geometry" />
        </mxCell>
      </root>
    </mxGraphModel>
  </diagram>
</mxfile>
